<svg xmlns="http://www.w3.org/2000/svg" width="28" height="28" viewBox="0 0 28 28">
  <path id="Icon_ionic-md-call" data-name="Icon ionic-md-call" d="M30.944,23.944a18.257,18.257,0,0,1-5.522-.855,1.455,1.455,0,0,0-1.555.389L20.444,26.9A23.392,23.392,0,0,1,10.178,16.633L13.6,13.211a1.621,1.621,0,0,0,.389-1.556,16.917,16.917,0,0,1-.933-5.6A1.56,1.56,0,0,0,11.5,4.5H6.056A1.56,1.56,0,0,0,4.5,6.056,26.422,26.422,0,0,0,30.944,32.5,1.561,1.561,0,0,0,32.5,30.944V25.5A1.561,1.561,0,0,0,30.944,23.944Z" transform="translate(-4.5 -4.5)" fill="#ff4900"/>
</svg>
