<svg width="29" height="29" viewBox="0 0 29 29" fill="none" xmlns="http://www.w3.org/2000/svg">
<path d="M15.4341 1.41846C15.183 1.39756 13.8157 1.39768 13.5659 1.41846C10.0104 1.55995 6.66394 3.02695 4.14247 5.54785C1.47096 8.2193 0 11.7709 0 15.5492C0 16.1724 0.409625 16.7014 0.973256 16.8821V20.7115V21.1956V21.2422C0.973256 21.9654 1.5613 22.5535 2.28454 22.5535H2.92033V24.2443C2.92033 24.9551 3.49818 25.5329 4.20834 25.5329H5.09579C5.43784 26.7237 6.5378 27.5976 7.8377 27.5976H8.236C9.80868 27.5976 11.0881 26.3181 11.0881 24.7455V22.4427C11.0881 22.2069 10.8973 22.0166 10.662 22.0166C10.4268 22.0166 10.2359 22.2069 10.2359 22.4427V24.7455C10.2359 25.8482 9.33879 26.7454 8.236 26.7454H7.8377C7.0082 26.7454 6.29515 26.238 5.9923 25.517C5.76058 24.9667 5.83721 25.3174 5.83721 17.2082C5.83721 16.1083 6.73248 15.2083 7.8377 15.2083H8.236C9.33879 15.2083 10.2359 16.1054 10.2359 17.2082V20.7382C10.2359 20.9734 10.4268 21.1643 10.662 21.1643C10.8973 21.1643 11.0881 20.9734 11.0881 20.7382V17.2082C11.0881 15.6355 9.80863 14.356 8.236 14.356H7.8377C6.53774 14.356 5.43778 15.2299 5.09579 16.4208H4.20834C3.49813 16.4208 2.92033 16.9985 2.92033 17.7093V19.4002C2.38723 19.4167 2.16883 19.3551 1.82547 19.4831V16.8821C2.38967 16.7014 2.79929 16.1724 2.79929 15.5492C2.79929 11.5726 4.92932 7.83415 8.35931 5.79327C8.56157 5.6728 8.62807 5.41089 8.50759 5.20863C8.38712 5.00693 8.12578 4.94044 7.92351 5.06091C6.13724 6.12394 4.64011 7.63523 3.5947 9.43175C2.51632 11.2834 1.94702 13.3986 1.94702 15.5491C1.94702 15.6792 1.9016 15.798 1.82541 15.8917C1.60763 16.1627 1.19495 16.1661 0.973199 15.8917C0.897641 15.798 0.852158 15.6792 0.852158 15.5491C0.852158 11.9987 2.23447 8.66133 4.74462 6.15062C7.11667 3.77913 10.2643 2.40078 13.6085 2.26955C17.8784 2.07521 21.446 3.34198 24.2552 6.15062C26.7654 8.66133 28.1477 11.9987 28.1477 15.5491C28.1477 15.6792 28.1022 15.798 28.0266 15.8917C27.926 16.0162 27.7727 16.0963 27.6005 16.0963C27.4284 16.0963 27.2744 16.0162 27.1744 15.8917C27.0983 15.798 27.0528 15.6792 27.0528 15.5491C27.0528 8.82383 21.582 3.3524 14.8567 3.3524C14.4311 3.38627 12.2299 3.14261 9.49954 4.27111C9.28249 4.36089 9.17856 4.60971 9.26884 4.82732C9.35862 5.04494 9.60744 5.14836 9.82505 5.05859C12.3913 3.99828 14.4448 4.23696 14.8567 4.20462C21.1121 4.20462 26.2005 9.29361 26.2005 15.5491C26.2005 16.1723 26.6102 16.7013 27.1744 16.882V19.483C26.8309 19.355 26.6149 19.4167 26.0795 19.4001V17.7093C26.0795 16.9985 25.5016 16.4207 24.7915 16.4207H23.904C23.562 15.2298 22.462 14.356 21.1621 14.356H20.7638C20.3536 14.356 19.957 14.4418 19.5849 14.6123C19.3707 14.71 19.2764 14.9628 19.3747 15.177C19.4724 15.3913 19.7253 15.485 19.9395 15.3872C20.4781 15.141 20.8968 15.2248 21.1622 15.2082C21.9917 15.2082 22.7047 15.7156 23.0076 16.4366C23.1076 16.6741 23.1627 16.9349 23.1627 17.2082V17.2758C23.1627 18.1191 23.1627 23.9205 23.1627 24.7454C23.1627 25.8453 22.2674 26.7453 21.1622 26.7453H20.7639C19.6611 26.7453 18.764 25.8482 18.764 24.7454C18.8262 16.943 18.6196 17.0615 18.9566 16.3548C19.0577 16.1423 18.968 15.8878 18.7555 15.7867C18.543 15.6856 18.2885 15.7753 18.1873 15.9878C18.0044 16.3719 17.9117 16.7821 17.9117 17.2082V24.7455C17.9117 26.3181 19.1913 27.5976 20.7639 27.5976H21.1622C22.4621 27.5976 23.5621 26.7237 23.9041 25.5329H24.7915C25.5018 25.5329 26.0796 24.9551 26.0796 24.2443V22.5535H26.7153C27.4386 22.5535 28.0266 21.9654 28.0266 21.2422C28.0266 21.2289 28.0266 20.7282 28.0266 20.7115V20.7111V16.882C28.5903 16.7014 28.9999 16.1724 28.9999 15.5491C29 7.87272 22.9258 1.71651 15.4341 1.41846ZM3.77261 22.4057C3.77261 21.6118 3.77261 18.8306 3.77261 17.7093C3.77261 17.4684 3.96807 17.2729 4.2084 17.2729H4.98505V24.6806H4.20834C3.96802 24.6806 3.77255 24.4851 3.77255 24.2442V22.4057H3.77261ZM1.82547 21.1954V20.7114C1.82547 20.458 2.03113 20.2523 2.28454 20.2523H2.92033V21.7011H2.28454C2.03113 21.7011 1.82547 21.4955 1.82547 21.2421V21.1954ZM25.2274 19.5478V22.4057V24.2442C25.2274 24.4851 25.0319 24.6806 24.7916 24.6806H24.0149V17.2729H24.7916C25.0319 17.2729 25.2274 17.4684 25.2274 17.7093V19.5478ZM27.1745 21.2421C27.1745 21.4955 26.9689 21.7012 26.7155 21.7012H26.0797V20.2524H26.7155C26.9689 20.2524 27.1745 20.458 27.1745 20.7115C27.1745 20.7173 27.1745 21.252 27.1745 21.2421Z" fill="white"/>
<path d="M19.5828 11.5211C18.225 10.1634 16.4198 9.41553 14.4995 9.41553C12.5793 9.41553 10.7741 10.1633 9.41634 11.5211C9.23883 11.6987 9.23883 11.9863 9.41634 12.1639C9.59396 12.3414 9.8817 12.3414 10.0593 12.1639C11.2453 10.9778 12.8223 10.3246 14.4996 10.3246C16.177 10.3246 17.7539 10.9778 18.9399 12.1639C19.0288 12.2527 19.145 12.297 19.2613 12.297C19.6627 12.2971 19.8699 11.8083 19.5828 11.5211Z" fill="white"/>
<path d="M17.6732 13.9225C16.8257 13.0748 15.6986 12.6079 14.4999 12.6079C13.3012 12.6079 12.1741 13.0747 11.3265 13.9225C11.149 14.1 11.149 14.3877 11.3265 14.5652C11.5041 14.7427 11.7917 14.7427 11.9693 14.5652C12.6452 13.8893 13.5439 13.517 14.4998 13.517C15.4558 13.517 16.3545 13.8893 17.0304 14.5652C17.1192 14.654 17.2354 14.6984 17.3518 14.6984C17.4681 14.6984 17.5845 14.654 17.6732 14.5652C17.8507 14.3878 17.8507 14.1 17.6732 13.9225Z" fill="white"/>
<path d="M21.4455 9.6901C17.6004 5.33671 11.4571 5.34724 7.57454 9.22961C7.39703 9.40718 7.39703 9.69486 7.57454 9.87243C7.75205 10.0499 8.03973 10.05 8.21735 9.87243C11.7661 6.32373 17.2982 6.36774 20.7642 10.2919C20.854 10.3936 20.9792 10.4455 21.105 10.4455C21.4934 10.4455 21.7046 9.98344 21.4455 9.6901Z" fill="white"/>
</svg>
