<svg width="32" height="32" viewBox="0 0 32 32" fill="none" xmlns="http://www.w3.org/2000/svg">
<path d="M13.1651 15.0398C13.8291 14.7057 14.3312 14.3337 14.6752 13.9317C15.2873 13.2076 15.5893 12.2475 15.5893 11.0574C15.5893 9.89934 15.2873 8.90926 14.6832 8.07919C13.6751 6.72708 11.969 6.03503 9.55678 5.99902H0V25.5066H8.91073C9.91481 25.5066 10.8449 25.4206 11.705 25.2446C12.565 25.0666 13.3091 24.7406 13.9391 24.2645C14.4992 23.8505 14.9672 23.3364 15.3393 22.7304C15.9273 21.8143 16.2213 20.7762 16.2213 19.6201C16.2213 18.5 15.9633 17.546 15.4513 16.7619C14.9332 15.9778 14.1732 15.4038 13.1651 15.0398ZM3.94232 9.3873H8.24668C9.19276 9.3873 9.97282 9.48931 10.5849 9.69133C11.2929 9.98535 11.647 10.5834 11.647 11.4955C11.647 12.3135 11.3769 12.8856 10.8429 13.2076C10.3048 13.5296 9.60679 13.6917 8.75072 13.6917H3.94232V9.3873ZM10.7489 21.7783C10.2728 22.0083 9.60279 22.1223 8.74472 22.1223H3.94232V16.9199H8.81072C9.65879 16.9259 10.3188 17.0379 10.7909 17.2479C11.631 17.628 12.049 18.324 12.049 19.3421C12.049 20.5422 11.617 21.3503 10.7489 21.7783Z" fill="white"/>
<path d="M28.9239 6.90918H20.4492V9.33738H28.9239V6.90918Z" fill="white"/>
<path d="M31.8683 16.4922C31.6923 15.3621 31.3043 14.368 30.7002 13.5099C30.0382 12.5379 29.1981 11.8258 28.176 11.3758C27.1579 10.9237 26.0119 10.6977 24.7358 10.6997C22.5936 10.6997 20.8534 11.3698 19.5073 12.6999C18.1652 14.034 17.4932 15.9521 17.4932 18.4524C17.4932 21.1186 18.2352 23.0447 19.7273 24.2268C21.2135 25.4109 22.9296 26.001 24.8778 26.001C27.236 26.001 29.0701 25.2989 30.3802 23.8988C31.2183 23.0147 31.6923 22.1447 31.7963 21.2906H27.892C27.666 21.7126 27.404 22.0426 27.1039 22.2827C26.5599 22.7227 25.8518 22.9427 24.9838 22.9427C24.1577 22.9427 23.4576 22.7607 22.8736 22.3987C21.9095 21.8186 21.4055 20.8025 21.3415 19.3564H31.9963C32.0123 18.1103 31.9723 17.1522 31.8683 16.4922ZM21.4375 16.8662C21.5775 15.9281 21.9175 15.1841 22.4576 14.634C22.9976 14.086 23.7617 13.81 24.7398 13.808C25.6418 13.808 26.3959 14.066 27.0099 14.584C27.616 15.1061 27.958 15.8641 28.028 16.8662H21.4375Z" fill="white"/>
</svg>
