<svg width="27" height="27" viewBox="0 0 27 27" fill="none" xmlns="http://www.w3.org/2000/svg">
<path d="M11.108 12.6891C11.6683 12.4073 12.0919 12.0934 12.3822 11.7542C12.8986 11.1433 13.1535 10.3332 13.1535 9.32904C13.1535 8.3519 12.8986 7.51652 12.389 6.81615C11.5384 5.67531 10.0988 5.09138 8.06354 5.061H0V21.5205H7.51843C8.36562 21.5205 9.15038 21.448 9.87606 21.2995C10.6017 21.1493 11.2295 20.8742 11.7612 20.4725C12.2337 20.1232 12.6286 19.6895 12.9425 19.1781C13.4387 18.4052 13.6867 17.5293 13.6867 16.5538C13.6867 15.6087 13.469 14.8037 13.037 14.1422C12.5999 13.4806 11.9586 12.9963 11.108 12.6891ZM3.32634 7.91986H6.95813C7.75639 7.91986 8.41457 8.00593 8.93098 8.17638C9.52841 8.42447 9.82712 8.92907 9.82712 9.69863C9.82712 10.3889 9.59929 10.8715 9.14869 11.1433C8.69471 11.415 8.10573 11.5517 7.38342 11.5517H3.32634V7.91986ZM9.06937 18.3748C8.66771 18.5689 8.10235 18.6651 7.37836 18.6651H3.32634V14.2755H7.43405C8.14961 14.2806 8.70653 14.3751 9.10481 14.5523C9.81362 14.8729 10.1663 15.4602 10.1663 16.3192C10.1663 17.3318 9.8018 18.0136 9.06937 18.3748Z" fill="#ED0000"/>
<path d="M24.4044 5.82895H17.2539V7.87774H24.4044V5.82895Z" fill="#ED0000"/>
<path d="M26.8888 13.9147C26.7403 12.9612 26.4129 12.1225 25.9032 11.3985C25.3446 10.5783 24.6358 9.97746 23.7734 9.59775C22.9144 9.21634 21.9474 9.02564 20.8707 9.02732C19.0632 9.02732 17.595 9.59268 16.4592 10.715C15.3268 11.8406 14.7598 13.4591 14.7598 15.5686C14.7598 17.8182 15.3859 19.4434 16.6449 20.4408C17.8988 21.4399 19.3468 21.9378 20.9905 21.9378C22.9802 21.9378 24.5278 21.3454 25.6332 20.164C26.3403 19.4181 26.7403 18.684 26.8281 17.9634H23.5338C23.3431 18.3195 23.122 18.5979 22.8689 18.8004C22.4098 19.1717 21.8124 19.3574 21.08 19.3574C20.383 19.3574 19.7923 19.2038 19.2995 18.8983C18.4861 18.4089 18.0608 17.5516 18.0068 16.3314H26.9968C27.0103 15.28 26.9766 14.4716 26.8888 13.9147ZM18.0878 14.2303C18.2059 13.4388 18.4928 12.811 18.9485 12.3469C19.4041 11.8845 20.0488 11.6516 20.8741 11.6499C21.6352 11.6499 22.2714 11.8676 22.7895 12.3047C23.3009 12.7452 23.5895 13.3848 23.6486 14.2303H18.0878Z" fill="#ED0000"/>
</svg>
