<svg width="179" height="87" viewBox="0 0 179 87" fill="none" xmlns="http://www.w3.org/2000/svg">
<path d="M172.31 48.2002L171.15 51.0002L167.15 52.7002L162.15 52.5302L158.55 50.5302L158 47.7002L160.74 45.3102L165.5 44.4902L170.06 45.6302L172.31 48.2002Z" fill="#9D9D9C"/>
<path d="M167.06 60.31L166.14 58.37L162.08 58.23L160.79 60.11L157.73 60.72L154.73 59.72L151.73 61.28L153 63.14L151.6 64.82L148.23 65.35L148 67.69L151.25 68.44L152.31 70.2L150.61 72L153.31 73.75L156.52 72.96L159.44 73.77L160.35 75.77L164.41 75.9L165.71 74.03L168.71 73.41L171.71 74.41L174.71 72.85L173.33 71L174.74 69.32L178.11 68.79L178.34 66.44L175.1 65.7L174.03 63.93L175.76 62.18L173.06 60.43L169.85 61.23L167.06 60.31Z" fill="#2542CB" fill-opacity="0.6"/>
<path opacity="0.5" d="M3.81 33.9999L0.88 34.0899L0 35.9999L2.47 36.9199L2.72 38.5599L0.58 39.6899L2 41.4899L5 41.2799L7 42.4399L6.64 44.1199L9.73 44.9999L11.73 43.7499L14.57 43.8899L16.17 45.3099L19.49 44.7999L19.63 43.0999L22 42.1199L24.81 42.6099L26.81 40.9799L25 39.6299L25.68 37.9999L28.39 37.3399L28.08 35.3399L25.22 34.9999L24 33.5399L25.34 31.9999L22.9 30.5999L20.29 31.3699L17.71 30.6799L17.05 29.0299L13.62 28.8599L12.49 30.4199L9.73 30.8499L7.39 29.8499L4.58 30.9999L5.45 32.6199L3.81 33.9999Z" fill="#7D92F5"/>
<path d="M107.45 45.9001C96.1297 39.3601 77.7697 39.3601 66.4497 45.9001L51.7197 37.3901V8.39014L125.85 10.7601V39.7601L109.59 47.2701C108.902 46.7747 108.188 46.3174 107.45 45.9001Z" fill="#667FF8"/>
<path d="M107.45 45.9001C96.1297 39.3601 77.7697 39.3601 66.4497 45.9001L51.7197 37.3901V8.39014H97.8797L109.59 18.2701V47.2701C108.902 46.7747 108.188 46.3174 107.45 45.9001Z" fill="#A5B4FF"/>
<path d="M107.45 16.93C96.1297 10.39 77.7697 10.39 66.4497 16.93L51.7197 8.43C71.1797 -2.81 102.72 -2.81 122.18 8.43C123.443 9.15601 124.668 9.94707 125.85 10.8L109.59 18.31C108.902 17.8112 108.188 17.3505 107.45 16.93Z" fill="#7D92F5"/>
<path d="M109.6 47.2501V27.6401L136.72 38.6401V57.7401C136.72 65.1101 131.84 72.4701 122.09 78.0801L107.38 69.5501V49.9601C107.38 49.9601 116.49 55.4901 113.91 51.6401C112.738 49.9383 111.28 48.4528 109.6 47.2501Z" fill="#DADADA"/>
<path d="M109.59 27.6702L125.85 20.1602C133.13 25.4002 136.77 31.7702 136.77 38.1602C136.77 45.5202 131.9 52.8702 122.18 58.4802L107.45 50.0002C118 43.8702 118.72 34.2402 109.59 27.6702Z" fill="#EDEDED"/>
<path d="M122.18 66.4901V78.0801C113.18 83.2901 101.52 86.0801 89.6998 86.4501L88.5498 74.4501V62.8501L122.18 66.4901Z" fill="#71BFFF"/>
<path d="M107.45 58L122.18 66.5C113.18 71.71 101.52 74.5 89.6998 74.87L88.5498 62.87C95.4298 62.63 102.2 61 107.45 58Z" fill="#4FAFFD"/>
<path d="M51.7199 7.41016L66.4399 8.90016V45.9002C60.7799 49.1602 75.1799 41.3402 83.1199 41.0802L89.6999 49.4602V86.4602C76.0499 86.9002 62.1499 84.1101 51.6999 78.0901C41.9999 72.4602 37.1299 65.1002 37.1299 57.7402V20.7402L51.7199 7.41016Z" fill="#7288E0"/>
<path d="M37.1299 20.7399C37.1299 13.3799 41.9999 5.9999 51.7199 0.399902L66.4399 8.8999C55.1199 15.4399 55.1199 26.0399 66.4399 32.5799C72.5099 36.0899 80.5999 37.6999 88.5499 37.4399L89.6999 49.4399C76.0499 49.8699 62.1499 47.0799 51.6999 41.0599C41.9999 35.4699 37.1299 28.1099 37.1299 20.7399Z" fill="#7D92E2"/>
</svg>
