<svg width="29" height="29" viewBox="0 0 29 29" fill="none" xmlns="http://www.w3.org/2000/svg">
<g clip-path="url(#clip0)">
<path d="M7.43359 15.4352C7.39687 15.4352 7.35925 15.4318 7.32319 15.4243C7.2869 15.417 7.25128 15.4064 7.21721 15.3922C7.18269 15.3781 7.14973 15.3604 7.11919 15.34C7.088 15.3197 7.05923 15.2958 7.03313 15.2699C7.00702 15.2431 6.98335 15.2143 6.96299 15.1836C6.94263 15.1524 6.92493 15.1197 6.91077 15.0858C6.89661 15.0517 6.88599 15.0161 6.87847 14.9798C6.87117 14.9431 6.86719 14.9061 6.86719 14.8688C6.86719 14.832 6.87117 14.7951 6.87847 14.7583C6.88599 14.7221 6.89661 14.6864 6.91077 14.6524C6.92493 14.6185 6.94263 14.5856 6.96299 14.5546C6.98335 14.5238 7.00702 14.4944 7.03313 14.4683C7.05923 14.4424 7.088 14.4185 7.11919 14.3981C7.14995 14.3778 7.18269 14.3601 7.21721 14.3459C7.25128 14.3318 7.2869 14.3212 7.32319 14.3139C7.3962 14.299 7.47099 14.299 7.54466 14.3139C7.58028 14.3212 7.61591 14.3318 7.65042 14.3459C7.68449 14.3601 7.71746 14.3778 7.74799 14.3981C7.77919 14.4185 7.80795 14.4424 7.83406 14.4683C7.86017 14.4944 7.88384 14.5238 7.90486 14.5546C7.92522 14.5856 7.94292 14.6185 7.95708 14.6524C7.97124 14.6864 7.98186 14.7221 7.98916 14.7583C7.99668 14.7951 8 14.832 8 14.8688C8 14.9061 7.99646 14.9429 7.98916 14.9798C7.98186 15.0161 7.97124 15.0517 7.95708 15.0858C7.94292 15.1197 7.92522 15.1526 7.90486 15.1836C7.88384 15.2143 7.86017 15.2431 7.83406 15.2699C7.80795 15.2958 7.77919 15.3197 7.74799 15.34C7.71746 15.3604 7.68449 15.3781 7.65042 15.3922C7.61591 15.4064 7.58028 15.417 7.54466 15.4243C7.50771 15.4318 7.47032 15.4352 7.43359 15.4352Z" fill="white"/>
<path d="M16.6371 10.0098C14.7909 10.0098 13.2891 8.50751 13.2891 6.66116C13.2891 4.8148 14.7909 3.3125 16.6371 3.3125C18.483 3.3125 19.9848 4.8148 19.9848 6.66116C19.9848 8.50751 18.483 10.0098 16.6371 10.0098ZM16.6371 4.44531C15.4155 4.44531 14.4219 5.43918 14.4219 6.66116C14.4219 7.88291 15.4155 8.87678 16.6371 8.87678C17.8584 8.87678 18.852 7.88291 18.852 6.66116C18.852 5.43918 17.8584 4.44531 16.6371 4.44531Z" fill="white"/>
<path d="M28.2555 13.8752C27.7895 13.5889 27.22 13.5659 26.7324 13.813L23.9185 15.2396V14.3223C23.9185 12.7399 22.6312 11.4527 21.0491 11.4527H20.1165C21.5962 10.3745 22.56 8.62818 22.56 6.66103C22.56 3.39401 19.9028 0.736328 16.6366 0.736328C14.2739 0.736328 12.2299 2.12734 11.2799 4.13344C10.3301 2.12734 8.2859 0.736328 5.92315 0.736328C2.65702 0.736328 0 3.39423 0 6.66103C0 8.69699 1.03214 10.4962 2.60038 11.5633C1.40075 11.9071 0.520386 13.0138 0.520386 14.3223V25.3892C0.520386 26.9713 1.80763 28.2586 3.39003 28.2586H21.0491C22.6312 28.2586 23.9185 26.9713 23.9185 25.3892V24.4718L26.7324 25.8983C26.9567 26.0122 27.1983 26.0686 27.4393 26.0686C27.722 26.0686 28.0039 25.9907 28.2555 25.8363C28.7217 25.55 29 25.0524 29 24.5053V15.2062C29 14.6591 28.7217 14.1615 28.2555 13.8752ZM16.6369 1.86914C19.2782 1.86914 21.4272 4.01883 21.4272 6.66103C21.4272 9.30322 19.2782 11.4527 16.6369 11.4527C13.9953 11.4527 11.8463 9.30322 11.8463 6.66103C11.8463 4.01883 13.9953 1.86914 16.6369 1.86914ZM13.157 11.4527H9.40301C10.2031 10.8697 10.8524 10.0913 11.2799 9.18839C11.7076 10.0913 12.3567 10.8697 13.157 11.4527ZM1.13281 6.66103C1.13281 4.01883 3.28184 1.86914 5.92315 1.86914C8.56468 1.86914 10.7135 4.01883 10.7135 6.66103C10.7135 9.30322 8.56468 11.4527 5.92315 11.4527C3.28184 11.4527 1.13281 9.30322 1.13281 6.66103ZM3.39003 12.5855H21.0491C22.0002 12.5855 22.7753 13.3541 22.7857 14.3029H10.4542C10.1413 14.3029 9.88777 14.5564 9.88777 14.8693C9.88777 15.1821 10.1413 15.4357 10.4542 15.4357H22.7857V24.2756H1.6532V15.4357H4.56599C4.87884 15.4357 5.13239 15.1821 5.13239 14.8693C5.13239 14.5564 4.87884 14.3029 4.56599 14.3029H1.65342C1.66382 13.3541 2.43887 12.5855 3.39003 12.5855ZM21.0491 27.1258H3.39003C2.43887 27.1258 1.66382 26.3571 1.65342 25.4084H22.7857C22.7753 26.3571 22.0002 27.1258 21.0491 27.1258ZM27.8672 24.5053C27.8672 24.7219 27.7243 24.8332 27.6628 24.871C27.6012 24.9086 27.4375 24.9858 27.2446 24.888L23.9185 23.2016V16.5096L27.2446 14.8235C27.4373 14.7257 27.6012 14.8027 27.6628 14.8405C27.7243 14.8781 27.8672 14.9894 27.8672 15.206V24.5053Z" fill="white"/>
<path d="M5.92297 10.0098C4.07706 10.0098 2.5752 8.50751 2.5752 6.66116C2.5752 4.8148 4.07706 3.3125 5.92297 3.3125C7.76888 3.3125 9.27096 4.8148 9.27096 6.66116C9.27096 8.50751 7.7691 10.0098 5.92297 10.0098ZM5.92297 4.44531C4.70165 4.44531 3.70801 5.43918 3.70801 6.66116C3.70801 7.88291 4.70165 8.87678 5.92297 8.87678C7.14428 8.87678 8.13815 7.88291 8.13815 6.66116C8.13815 5.43918 7.1445 4.44531 5.92297 4.44531Z" fill="white"/>
<path d="M10.6808 23.096C10.4503 23.096 10.2193 23.0365 10.0071 22.917C9.56967 22.6708 9.30859 22.2238 9.30859 21.7218V17.9891C9.30859 17.487 9.56967 17.0401 10.0073 16.7939C10.4443 16.5474 10.9618 16.5558 11.3912 16.816L14.4695 18.6825C14.8831 18.9331 15.1302 19.3717 15.1302 19.8555C15.1302 20.3392 14.8831 20.7779 14.4695 21.0286L11.3912 22.8949C11.1702 23.029 10.9255 23.096 10.6808 23.096ZM10.6812 17.7486C10.6308 17.7486 10.5892 17.766 10.5631 17.7806C10.5175 17.8063 10.4414 17.8674 10.4414 17.9891V21.7216C10.4414 21.8433 10.5177 21.9043 10.5631 21.93C10.6085 21.9557 10.7001 21.9891 10.8038 21.926L13.8821 20.0598C13.9823 19.9991 13.9974 19.9055 13.9974 19.8553C13.9974 19.8051 13.9823 19.7117 13.8821 19.6509L10.8038 17.7846C10.76 17.7579 10.7182 17.7486 10.6812 17.7486Z" fill="white"/>
</g>
<defs>
<clipPath id="clip0">
<rect width="29" height="29" fill="white"/>
</clipPath>
</defs>
</svg>
