<svg xmlns="http://www.w3.org/2000/svg" width="34.233" height="34.233" viewBox="0 0 34.233 34.233">
  <g id="Icon_ionic-ios-chatbubbles" data-name="Icon ionic-ios-chatbubbles" transform="translate(-3.375 -3.375)">
    <path id="Path_159" data-name="Path 159" d="M34.074,25.808a1.994,1.994,0,0,1,.272-1,2.772,2.772,0,0,1,.173-.255,13.334,13.334,0,0,0,2.271-7.431C36.815,9.53,30.412,3.375,22.5,3.375A14.2,14.2,0,0,0,8.482,14.312a13.224,13.224,0,0,0-.3,2.814A13.959,13.959,0,0,0,22.249,31.041a16.947,16.947,0,0,0,3.884-.634c.93-.255,1.852-.592,2.09-.683a2.176,2.176,0,0,1,.765-.14,2.139,2.139,0,0,1,.831.165L34.486,31.4a1.113,1.113,0,0,0,.321.082.655.655,0,0,0,.658-.658,1.057,1.057,0,0,0-.041-.222Z" transform="translate(0.818)" fill="#ff4900"/>
    <path id="Path_160" data-name="Path 160" d="M25.635,30.1c-.3.082-.675.173-1.086.263a15.188,15.188,0,0,1-2.8.37A13.959,13.959,0,0,1,7.679,16.819,15.558,15.558,0,0,1,7.8,15.058c.049-.354.107-.708.189-1.053.082-.37.181-.741.288-1.1l-.658.584A12.247,12.247,0,0,0,3.375,22.7a12.11,12.11,0,0,0,2.041,6.748c.189.288.3.51.263.658S4.7,35.2,4.7,35.2a.66.66,0,0,0,.222.634.67.67,0,0,0,.42.148.59.59,0,0,0,.239-.049L10.2,34.117a1.286,1.286,0,0,1,.987.016,13.85,13.85,0,0,0,5,.987,12.924,12.924,0,0,0,9.883-4.534s.263-.362.568-.79C26.326,29.9,25.98,30.011,25.635,30.1Z" transform="translate(0 1.623)" fill="#ff4900"/>
  </g>
</svg>
