<svg width="100" height="125" viewBox="0 0 100 125" fill="none" xmlns="http://www.w3.org/2000/svg">
<path d="M100 24.0679V74.9726C100 76.899 98.7766 78.8255 96.183 80.2886C93.3211 81.7376 90.1564 82.4928 86.9464 82.4928C83.7364 82.4928 80.5717 81.7376 77.7098 80.2886C75.1529 78.8255 73.8806 76.899 73.8806 74.9726V24.0679H100Z" fill="#8BC9FE"/>
<path d="M77.7099 18.7642C72.6084 21.6905 72.6084 26.4578 77.7099 29.3841C80.5719 30.833 83.7365 31.5882 86.9465 31.5882C90.1566 31.5882 93.3212 30.833 96.1832 29.3841C101.272 26.4578 101.272 21.6905 96.1832 18.7642C93.3212 17.3153 90.1566 16.5601 86.9465 16.5601C83.7365 16.5601 80.5719 17.3153 77.7099 18.7642Z" fill="#AAD9FF"/>
<path d="M81.5269 7.51074V85.6053C81.5269 87.5317 80.3035 89.446 77.7099 90.9213C74.8463 92.3646 71.6823 93.1166 68.4733 93.1166C65.2643 93.1166 62.1003 92.3646 59.2367 90.9213C56.692 89.446 55.4075 87.5317 55.4075 85.6053V7.57171L81.5269 7.51074Z" fill="#7288E0"/>
<path d="M59.2366 2.20659C54.135 5.13285 54.135 9.90021 59.2366 12.8265C62.0985 14.2754 65.2631 15.0306 68.4732 15.0306C71.6832 15.0306 74.8479 14.2754 77.7098 12.8265C82.8113 9.90021 82.8113 5.13285 77.7098 2.20659C74.8479 0.757635 71.6832 0.00244141 68.4732 0.00244141C65.2631 0.00244141 62.0985 0.757635 59.2366 2.20659Z" fill="#7D92E2"/>
<path d="M63.0657 25.6045V96.3224C63.0657 98.2367 61.8423 100.163 59.2365 101.626C56.3746 103.075 53.2099 103.83 49.9999 103.83C46.7899 103.83 43.6252 103.075 40.7633 101.626C38.2186 100.163 36.9463 98.2367 36.9463 96.3224V25.6045H63.0657Z" fill="#E4E4E4"/>
<path d="M49.9999 33.0908C57.216 33.0908 63.0657 29.7281 63.0657 25.5801C63.0657 21.432 57.216 18.0693 49.9999 18.0693C42.7838 18.0693 36.9341 21.432 36.9341 25.5801C36.9341 29.7281 42.7838 33.0908 49.9999 33.0908Z" fill="#EDEDED"/>
<path d="M44.5925 66.4502V106.857C44.5925 108.783 43.3692 110.71 40.7633 112.173C37.9014 113.622 34.7367 114.377 31.5267 114.377C28.3167 114.377 25.152 113.622 22.2901 112.173C19.7455 110.71 18.4731 108.783 18.4731 106.857V66.4502H44.5925Z" fill="#667FF8"/>
<path d="M31.5268 73.9609C38.7428 73.9609 44.5926 70.5982 44.5926 66.4502C44.5926 62.3021 38.7428 58.9395 31.5268 58.9395C24.3107 58.9395 18.4609 62.3021 18.4609 66.4502C18.4609 70.5982 24.3107 73.9609 31.5268 73.9609Z" fill="#7D92F5"/>
<path d="M26.1194 60.7925V117.489C26.1194 119.415 24.896 121.329 22.2902 122.805C19.4304 124.254 16.2677 125.009 13.0597 125.009C9.85166 125.009 6.68897 124.254 3.82921 122.805C1.22339 121.329 0 119.415 0 117.489V60.7925H26.1194Z" fill="#2542CB"/>
<path d="M3.82909 55.4887C-1.27246 58.4149 -1.27246 63.1823 3.82909 66.1086C6.68884 67.5574 9.85153 68.3126 13.0596 68.3126C16.2676 68.3126 19.4303 67.5574 22.2901 66.1086C27.3916 63.1823 27.3916 58.4149 22.2901 55.4887C19.4303 54.0398 16.2676 53.2847 13.0596 53.2847C9.85153 53.2847 6.68884 54.0398 3.82909 55.4887Z" fill="#3756EA"/>
</svg>
