<svg width="22" height="21" viewBox="0 0 22 21" fill="none" xmlns="http://www.w3.org/2000/svg">
<path d="M12.7136 9.1875V9.5375H13.0636H15.8136C15.9554 9.5375 16.0727 9.61594 16.1229 9.72199C16.1731 9.82785 16.1552 9.94987 16.0738 10.0377L16.0726 10.0391L11.2607 15.2884C11.2606 15.2885 11.2605 15.2886 11.2604 15.2887C11.1969 15.3574 11.1024 15.4 11.0011 15.4C10.8982 15.4 10.8047 15.3576 10.7425 15.2896L10.7421 15.2891L5.93002 10.0396C5.92994 10.0395 5.92987 10.0394 5.92979 10.0393C5.84561 9.94692 5.82961 9.82532 5.87848 9.7235L5.87887 9.72268C5.92949 9.61649 6.04765 9.5375 6.18856 9.5375H8.93856H9.28856V9.1875V0.65625C9.28856 0.502465 9.42434 0.35 9.62606 0.35H12.3761C12.5778 0.35 12.7136 0.502465 12.7136 0.65625V9.1875Z" fill="white" stroke="white" stroke-width="0.7"/>
<path d="M18.5625 14.4375V18.375H3.4375V14.4375H0.6875V19.6875C0.6875 20.4133 1.3035 21 2.0625 21H19.9375C20.6979 21 21.3125 20.4133 21.3125 19.6875V14.4375H18.5625Z" fill="white"/>
</svg>
