<svg width="27" height="27" viewBox="0 0 27 27" fill="none" xmlns="http://www.w3.org/2000/svg">
<path d="M13.5 0C6.05644 0 0 6.05644 0 13.5C0 20.9436 6.05644 27 13.5 27C20.9436 27 27 20.9436 27 13.5C27 6.05644 20.9436 0 13.5 0ZM13.5 25.3125C6.98625 25.3125 1.6875 20.0121 1.6875 13.5C1.6875 6.98625 6.98625 1.6875 13.5 1.6875C20.0121 1.6875 25.3125 6.98625 25.3125 13.5C25.3125 20.0121 20.0121 25.3125 13.5 25.3125Z" fill="white"/>
<path d="M13.4995 3.375C12.7908 3.375 12.0989 3.44925 11.4307 3.58762C12.6592 5.32912 13.7746 7.1415 14.7567 9.01969C16.6147 8.154 18.3629 7.03688 19.9593 5.70375C18.206 4.24913 15.9549 3.375 13.4995 3.375Z" fill="white"/>
<path d="M21.1633 6.89502C19.4269 8.35808 17.5167 9.57139 15.4883 10.5198C15.9321 11.4445 16.3438 12.3811 16.7252 13.3328C18.9662 12.8721 21.2983 12.83 23.6102 13.213C23.5427 10.7999 22.6348 8.59939 21.1633 6.89502Z" fill="white"/>
<path d="M9.73712 4.10693C6.69793 5.32531 4.3928 7.97131 3.64355 11.2197C6.92068 11.3598 10.1641 10.8131 13.183 9.6605C12.1688 7.73506 11.0196 5.87881 9.73712 4.10693Z" fill="white"/>
<path d="M13.9388 11.186C11.016 12.3251 7.89413 12.9461 4.71994 12.9461C4.28287 12.9461 3.84412 12.9191 3.40537 12.8955C3.39356 13.0963 3.375 13.2954 3.375 13.4996C3.375 15.9853 4.27444 18.26 5.76113 20.0218C8.19281 17.0028 11.4615 14.8395 15.0795 13.7527C14.7268 12.8853 14.3454 12.0315 13.9388 11.186Z" fill="white"/>
<path d="M17.3438 14.9309C18.1487 17.1753 18.7798 19.4821 19.2422 21.8344C21.5237 20.26 23.1167 17.7743 23.5166 14.9022C21.4477 14.536 19.3569 14.5529 17.3438 14.9309Z" fill="white"/>
<path d="M15.6867 15.3228C12.2847 16.3167 9.21179 18.3586 6.95898 21.2223C8.72411 22.7191 11.0039 23.6253 13.4997 23.6253C14.9982 23.6253 16.4174 23.2911 17.6965 22.7056C17.2325 20.1844 16.5575 17.7173 15.6867 15.3228Z" fill="white"/>
</svg>
