<svg id="dribble" xmlns="http://www.w3.org/2000/svg" width="34.937" height="34.937" viewBox="0 0 34.937 34.937">
  <path id="Path_60" data-name="Path 60" d="M32.595,8.7a17.4,17.4,0,0,0-6.357-6.357A17.087,17.087,0,0,0,17.469,0,17.087,17.087,0,0,0,8.7,2.343,17.391,17.391,0,0,0,2.343,8.7,17.087,17.087,0,0,0,0,17.468a17.09,17.09,0,0,0,2.343,8.768A17.4,17.4,0,0,0,8.7,32.594a17.089,17.089,0,0,0,8.768,2.343,17.089,17.089,0,0,0,8.769-2.343,17.391,17.391,0,0,0,6.357-6.357,17.09,17.09,0,0,0,2.342-8.768A17.091,17.091,0,0,0,32.595,8.7ZM17.469,2.548a14.378,14.378,0,0,1,9.849,3.73l-.284.4a9.866,9.866,0,0,1-.853.921,14.62,14.62,0,0,1-1.49,1.3,19.956,19.956,0,0,1-2.2,1.4,21.115,21.115,0,0,1-2.957,1.376,64.868,64.868,0,0,0-5.6-8.689A15.048,15.048,0,0,1,17.469,2.548ZM5.778,8.211A14.72,14.72,0,0,1,11.1,3.98a78.3,78.3,0,0,1,5.55,8.6A53.96,53.96,0,0,1,2.866,14.4,14.747,14.747,0,0,1,5.778,8.211ZM3.548,22.848a14.636,14.636,0,0,1-1-5.38,3.706,3.706,0,0,1,.023-.478,53.2,53.2,0,0,0,15.308-2.115q.728,1.41,1.206,2.525a1.839,1.839,0,0,1-.3.1c-.137.038-.235.064-.3.08l-.841.3a17.494,17.494,0,0,0-2.263,1.092q-1.4.774-2.968,1.843a20.322,20.322,0,0,0-3.241,2.832,19.065,19.065,0,0,0-2.809,3.787A14.938,14.938,0,0,1,3.548,22.848Zm13.92,9.541a14.64,14.64,0,0,1-9.508-3.412l.341.25a12.173,12.173,0,0,1,2.343-3.367,19.773,19.773,0,0,1,2.98-2.6,29.363,29.363,0,0,1,3.116-1.865q1.683-.875,2.3-1.114t.978-.376l.045-.023h.046a61.489,61.489,0,0,1,3.184,11.327A14.914,14.914,0,0,1,17.469,32.39Zm12.556-6.858a14.905,14.905,0,0,1-4.208,4.31,64.085,64.085,0,0,0-2.912-10.668,21.489,21.489,0,0,1,9.3.659A14.72,14.72,0,0,1,30.025,25.532Zm2.137-8.268q-.227-.045-.569-.1l-.83-.136q-.488-.08-1.092-.148t-1.286-.125q-.682-.057-1.455-.091t-1.57-.034q-.8,0-1.671.045T22,16.832a2.694,2.694,0,0,1-.171-.376c-.068-.174-.118-.307-.147-.4q-.433-.955-1-2.161a23.341,23.341,0,0,0,2.992-1.467,23.248,23.248,0,0,0,2.274-1.478,18.906,18.906,0,0,0,1.615-1.376,13.126,13.126,0,0,0,.99-1.012q.228-.285.432-.557L29,7.983a14.591,14.591,0,0,1,3.389,9.326Z" transform="translate(0 0)" fill="rgba(255,73,0,0.91)"/>
</svg>
