<svg width="25" height="25" viewBox="0 0 25 25" fill="none" xmlns="http://www.w3.org/2000/svg">
<path d="M12.5 0C5.60781 0 0 5.60781 0 12.5C0 19.3922 5.60781 25 12.5 25C19.3922 25 25 19.3922 25 12.5C25 5.60781 19.3922 0 12.5 0ZM12.5 23.4375C6.46875 23.4375 1.5625 18.5297 1.5625 12.5C1.5625 6.46875 6.46875 1.5625 12.5 1.5625C18.5297 1.5625 23.4375 6.46875 23.4375 12.5C23.4375 18.5297 18.5297 23.4375 12.5 23.4375Z" fill="#ED0000"/>
<path d="M12.4996 3.125C11.8434 3.125 11.2027 3.19375 10.584 3.32187C11.7215 4.93437 12.7543 6.6125 13.6637 8.35156C15.384 7.55 17.0027 6.51562 18.4809 5.28125C16.8574 3.93437 14.773 3.125 12.4996 3.125Z" fill="#ED0000"/>
<path d="M19.5965 6.38419C17.9887 7.73887 16.2199 8.86231 14.3418 9.74044C14.7527 10.5967 15.134 11.4639 15.4871 12.3451C17.5621 11.9186 19.7215 11.8795 21.8621 12.2342C21.7996 9.99981 20.959 7.96231 19.5965 6.38419Z" fill="#ED0000"/>
<path d="M9.01621 3.8028C6.20215 4.93092 4.06777 7.38092 3.37402 10.3887C6.4084 10.5184 9.41152 10.0122 12.2068 8.94498C11.2678 7.16217 10.2037 5.44342 9.01621 3.8028Z" fill="#ED0000"/>
<path d="M12.9062 10.3574C10.2 11.412 7.30937 11.987 4.37031 11.987C3.96562 11.987 3.55937 11.962 3.15312 11.9402C3.14219 12.1261 3.125 12.3105 3.125 12.4995C3.125 14.8011 3.95781 16.9074 5.33438 18.5386C7.58594 15.7433 10.6125 13.7402 13.9625 12.7339C13.6359 11.9308 13.2828 11.1402 12.9062 10.3574Z" fill="#ED0000"/>
<path d="M16.0586 13.8248C16.8039 15.9029 17.3883 18.0388 17.8164 20.217C19.9289 18.7592 21.4039 16.4576 21.7742 13.7982C19.8586 13.4592 17.9227 13.4748 16.0586 13.8248Z" fill="#ED0000"/>
<path d="M14.5256 14.1889C11.3756 15.1092 8.53027 16.9999 6.44434 19.6514C8.07871 21.0374 10.1896 21.8764 12.5006 21.8764C13.8881 21.8764 15.2021 21.5671 16.3865 21.0249C15.9568 18.6905 15.3318 16.4061 14.5256 14.1889Z" fill="#ED0000"/>
</svg>
