<svg width="31" height="25" viewBox="0 0 31 25" fill="none" xmlns="http://www.w3.org/2000/svg">
<path d="M29.9702 7.14219L17.6128 1.10554C16.5475 0.572893 14.7365 0.572893 13.6712 1.10554L1.02978 7.14219C0.142039 7.56831 0 8.17198 0 8.49156C0 8.81115 0.142039 9.37931 1.02978 9.84093L2.05956 10.3381V16.0196C1.42039 16.2682 0.958763 16.9074 0.958763 17.6176C0.958763 18.3278 1.42039 18.9669 2.02405 19.2155L0.426117 24.2934H4.90034L3.30241 19.2155C3.94158 18.9669 4.3677 18.3278 4.3677 17.6176C4.3677 16.8719 3.90607 16.2682 3.2669 16.0196V10.9417L5.14891 11.865V19.251C5.14891 19.3575 5.18442 19.4641 5.25544 19.5706C5.43299 19.7837 8.73539 24.2934 15.4822 24.2934C22.2291 24.2934 25.5315 19.7481 25.6735 19.5706C25.7446 19.4641 25.7801 19.3575 25.7801 19.251V11.9005L29.9702 9.84093C30.858 9.41481 31 8.81115 31 8.49156C30.9645 8.17198 30.858 7.56831 29.9702 7.14219ZM24.6438 19.0735C24.0756 19.7837 21.0218 23.1926 15.4822 23.1926C9.94273 23.1926 6.88889 19.7837 6.32073 19.0735V12.3621L13.6712 15.8776C14.2039 16.1262 14.9141 16.2682 15.6243 16.2682C16.37 16.2682 17.0802 16.1262 17.6128 15.8421L24.6438 12.3976V19.0735ZM29.4731 8.84666L25.2119 10.9417C25.0344 10.9417 24.8923 11.0128 24.8213 11.1548L17.1157 14.8833C16.37 15.2739 14.9141 15.2739 14.1329 14.8833L4.65178 10.3381L15.5533 9.05972C15.8729 9.02421 16.0859 8.74013 16.0504 8.45605C16.0149 8.13647 15.7308 7.92341 15.4467 7.95892L2.80527 9.45033L1.52692 8.84666C1.20733 8.70462 1.13631 8.52707 1.13631 8.52707C1.13631 8.49156 1.20733 8.34952 1.52692 8.20749L14.1684 2.13532C14.559 1.95777 15.0916 1.85124 15.6243 1.85124C16.1924 1.85124 16.7606 1.95777 17.1157 2.13532L29.4731 8.17198C29.7927 8.31401 29.8637 8.45605 29.8637 8.52707C29.8637 8.52707 29.7572 8.70462 29.4731 8.84666Z" fill="white"/>
</svg>
