<svg width="31" height="25" viewBox="0 0 31 25" fill="none" xmlns="http://www.w3.org/2000/svg">
<path d="M29.9702 7.14232L17.6128 1.10566C16.5475 0.573015 14.7365 0.573015 13.6712 1.10566L1.02978 7.14232C0.142039 7.56843 0 8.1721 0 8.49168C0 8.81127 0.142039 9.37943 1.02978 9.84105L2.05956 10.3382V16.0197C1.42039 16.2683 0.958763 16.9075 0.958763 17.6177C0.958763 18.3279 1.42039 18.9671 2.02405 19.2156L0.426117 24.2935H4.90034L3.30241 19.2156C3.94158 18.9671 4.3677 18.3279 4.3677 17.6177C4.3677 16.872 3.90607 16.2683 3.2669 16.0197V10.9419L5.14891 11.8651V19.2511C5.14891 19.3577 5.18442 19.4642 5.25544 19.5707C5.43299 19.7838 8.73539 24.2935 15.4822 24.2935C22.2291 24.2935 25.5315 19.7483 25.6735 19.5707C25.7446 19.4642 25.7801 19.3577 25.7801 19.2511V11.9006L29.9702 9.84105C30.858 9.41494 31 8.81127 31 8.49168C30.9645 8.1721 30.858 7.56843 29.9702 7.14232ZM24.6438 19.0736C24.0756 19.7838 21.0218 23.1927 15.4822 23.1927C9.94273 23.1927 6.88889 19.7838 6.32073 19.0736V12.3622L13.6712 15.8777C14.2039 16.1263 14.9141 16.2683 15.6243 16.2683C16.37 16.2683 17.0802 16.1263 17.6128 15.8422L24.6438 12.3978V19.0736ZM29.4731 8.84678L25.2119 10.9419C25.0344 10.9419 24.8923 11.0129 24.8213 11.1549L17.1157 14.8834C16.37 15.274 14.9141 15.274 14.1329 14.8834L4.65178 10.3382L15.5533 9.05984C15.8729 9.02433 16.0859 8.74025 16.0504 8.45618C16.0149 8.13659 15.7308 7.92353 15.4467 7.95904L2.80527 9.45045L1.52692 8.84678C1.20733 8.70474 1.13631 8.52719 1.13631 8.52719C1.13631 8.49169 1.20733 8.34965 1.52692 8.20761L14.1684 2.13544C14.559 1.95789 15.0916 1.85137 15.6243 1.85137C16.1924 1.85137 16.7606 1.95789 17.1157 2.13544L29.4731 8.1721C29.7927 8.31414 29.8637 8.45618 29.8637 8.52719C29.8637 8.52719 29.7572 8.70474 29.4731 8.84678Z" fill="black"/>
</svg>
