<svg xmlns="http://www.w3.org/2000/svg" width="37.51" height="22.506" viewBox="0 0 37.51 22.506">
  <path id="Icon_awesome-graduation-cap" data-name="Icon awesome-graduation-cap" d="M36.475,9.728,20.127,4.705a4.682,4.682,0,0,0-2.742,0L1.035,9.728a1.38,1.38,0,0,0,0,2.672l2.85.876a4.619,4.619,0,0,0-1.048,2.749,1.809,1.809,0,0,0-.149,3.107l-1.5,6.733a.938.938,0,0,0,.915,1.141H5.4a.938.938,0,0,0,.915-1.141l-1.5-6.733a1.8,1.8,0,0,0-.105-3.078A2.765,2.765,0,0,1,5.921,13.9l11.462,3.522a4.687,4.687,0,0,0,2.742,0L36.475,12.4A1.38,1.38,0,0,0,36.475,9.728Zm-15.8,9.488a6.561,6.561,0,0,1-3.844,0l-8.5-2.611L7.5,23.255c0,2.072,5.038,3.751,11.253,3.751s11.253-1.679,11.253-3.751l-.831-6.65Z" transform="translate(0 -4.5)" fill="#fff"/>
</svg>
