<svg xmlns="http://www.w3.org/2000/svg" width="22.67" height="25" viewBox="0 0 22.67 25">
  <path id="Icon_simple-email" data-name="Icon simple-email" d="M24.325,11.538a12.893,12.893,0,0,1-.416,2.8,8.092,8.092,0,0,1-1.087,2.456,5.737,5.737,0,0,1-1.843,1.745,5.2,5.2,0,0,1-2.692.664,3.9,3.9,0,0,1-1.947-.476,3.333,3.333,0,0,1-1.315-1.348A4.169,4.169,0,0,1,11.5,19.146,3.587,3.587,0,0,1,8.418,17.49a5.421,5.421,0,0,1-.765-1.918,8.273,8.273,0,0,1-.1-2.5A11.625,11.625,0,0,1,8.315,10,8.331,8.331,0,0,1,9.724,7.656a5.961,5.961,0,0,1,1.937-1.5,5.405,5.405,0,0,1,2.356-.523,7.325,7.325,0,0,1,1.409.12,5.768,5.768,0,0,1,1.094.328,5.913,5.913,0,0,1,.906.478c.277.178.555.362.831.55l-.684,7.874a2.617,2.617,0,0,0,.02.922,1.29,1.29,0,0,0,.281.569,1.012,1.012,0,0,0,.456.3,1.693,1.693,0,0,0,1.6-.316,3.416,3.416,0,0,0,.859-1.094,7.043,7.043,0,0,0,.578-1.643,11.276,11.276,0,0,0,.253-2.046A13.079,13.079,0,0,0,21.3,7.85a7.6,7.6,0,0,0-1.415-2.959,6.572,6.572,0,0,0-2.537-1.906,9.208,9.208,0,0,0-3.7-.676,8.161,8.161,0,0,0-3.656.8A8.387,8.387,0,0,0,7.22,5.315,10.6,10.6,0,0,0,5.4,8.637a14.974,14.974,0,0,0-.765,4.14A13.766,13.766,0,0,0,5.027,17,7.629,7.629,0,0,0,6.57,20.029a6.441,6.441,0,0,0,2.615,1.818,10.031,10.031,0,0,0,3.609.6,12.36,12.36,0,0,0,2.368-.255c.391-.078.761-.172,1.114-.275a8.384,8.384,0,0,0,.959-.344l.5,2.228a5.5,5.5,0,0,1-1.073.531,10.331,10.331,0,0,1-1.269.367,12.378,12.378,0,0,1-2.65.3,13.894,13.894,0,0,1-4.83-.778,8.89,8.89,0,0,1-3.521-2.315,9.723,9.723,0,0,1-2.114-3.823,16.306,16.306,0,0,1-.591-5.307A16.184,16.184,0,0,1,2.7,7.684,12.6,12.6,0,0,1,5.145,3.638,11.148,11.148,0,0,1,8.878.969,11.685,11.685,0,0,1,13.711,0a12.2,12.2,0,0,1,4.683.839A9.109,9.109,0,0,1,21.775,3.2a9.681,9.681,0,0,1,2.006,3.645A13.936,13.936,0,0,1,24.325,11.538ZM10.908,13.069a5.314,5.314,0,0,0,.275,2.635,1.413,1.413,0,0,0,1.359.89,1.5,1.5,0,0,0,.466-.086,1.66,1.66,0,0,0,.536-.322,2.86,2.86,0,0,0,.544-.656,5.035,5.035,0,0,0,.5-1.109L15.122,8.3a3.192,3.192,0,0,0-.831-.109,2.874,2.874,0,0,0-1.383.317,2.737,2.737,0,0,0-.98.931,5.468,5.468,0,0,0-.65,1.531,12.987,12.987,0,0,0-.369,2.093Z" transform="translate(-1.67)" fill="#ff4900"/>
</svg>
