<svg xmlns="http://www.w3.org/2000/svg" width="69.749" height="69.749" viewBox="0 0 69.749 69.749">
  <path id="Path_70" data-name="Path 70" d="M62.938,0H6.811A6.819,6.819,0,0,0,0,6.811V48.5a6.819,6.819,0,0,0,6.811,6.811H28.063v6.267H26.7a6.813,6.813,0,0,0-6.811,6.811,1.362,1.362,0,0,0,1.362,1.362H48.5a1.362,1.362,0,0,0,1.362-1.362,6.819,6.819,0,0,0-6.811-6.811H41.686V55.309H62.938A6.819,6.819,0,0,0,69.749,48.5V6.811A6.819,6.819,0,0,0,62.938,0ZM6.811,2.725H62.938a4.091,4.091,0,0,1,4.087,4.087V41.686H60.758V10.353A1.362,1.362,0,0,0,59.4,8.991H48.5a1.362,1.362,0,0,0-1.362,1.362V41.686H40.316c-.014-1.409-.051-2.8-.11-4.145a87.625,87.625,0,0,0-1.064-10.9A6.812,6.812,0,0,0,41,17.756L36.28,9.578a1.362,1.362,0,0,0-2.36,0L29.2,17.757a6.811,6.811,0,0,0,1.5,8.6,86.477,86.477,0,0,0-1.148,11.185c-.061,1.362-.1,2.752-.115,4.148H22.614V21.252a1.355,1.355,0,0,0-.135-.588c0-.007-.006-.014-.009-.021l-5.449-10.9a1.363,1.363,0,0,0-2.437,0l-5.449,10.9c0,.007-.005.014-.009.021a1.354,1.354,0,0,0-.135.588V41.686H2.725V6.811A4.091,4.091,0,0,1,6.811,2.725ZM49.86,41.686V11.716h8.174V14.44H56.671a1.362,1.362,0,0,0,0,2.725h1.362v4.087H56.671a1.362,1.362,0,0,0,0,2.725h1.362v4.087H56.671a1.362,1.362,0,0,0,0,2.725h1.362v5.449H56.671a1.362,1.362,0,0,0,0,2.725h1.362v2.725ZM35.1,27.969a6.821,6.821,0,0,0,1.47-.163c.253,1.62.624,4.488.844,8.431H32.344c.23-3.941.619-6.853.888-8.528a6.82,6.82,0,0,0,1.869.26Zm0-2.725a4.092,4.092,0,0,1-3.544-6.126L35.1,12.984l3.541,6.134A4.089,4.089,0,0,1,35.1,25.244ZM32.219,38.961h5.316c.029.9.048,1.806.058,2.725H32.157C32.168,40.773,32.188,39.862,32.219,38.961ZM17.165,41.686V22.614h2.725V41.686Zm-5.449,0V22.614H14.44V41.686Zm.842-21.8L15.8,13.4l3.245,6.49ZM46.9,67.025H22.846A4.095,4.095,0,0,1,26.7,64.3H43.048A4.093,4.093,0,0,1,46.9,67.025Zm-7.94-5.449H30.788V55.309h8.174Zm23.976-8.991H6.811A4.091,4.091,0,0,1,2.724,48.5V44.411h64.3V48.5A4.091,4.091,0,0,1,62.938,52.584Zm0,0" fill="#fff"/>
</svg>
