<svg xmlns="http://www.w3.org/2000/svg" width="53.522" height="53.522" viewBox="0 0 53.522 53.522">
  <path id="Path_70" data-name="Path 70" d="M48.3,0H5.227A5.233,5.233,0,0,0,0,5.227V37.215a5.233,5.233,0,0,0,5.227,5.227H21.534V47.25H20.489a5.228,5.228,0,0,0-5.227,5.227,1.045,1.045,0,0,0,1.045,1.045H37.215a1.045,1.045,0,0,0,1.045-1.045,5.233,5.233,0,0,0-5.227-5.227H31.988V42.441H48.3a5.233,5.233,0,0,0,5.227-5.227V5.227A5.233,5.233,0,0,0,48.3,0ZM5.227,2.091H48.3a3.139,3.139,0,0,1,3.136,3.136V31.988H46.623V7.945A1.045,1.045,0,0,0,45.577,6.9H37.215a1.045,1.045,0,0,0-1.045,1.045V31.988H30.937c-.011-1.081-.039-2.147-.084-3.181a67.239,67.239,0,0,0-.817-8.364,5.227,5.227,0,0,0,1.427-6.818L27.84,7.35a1.045,1.045,0,0,0-1.811,0L22.4,13.626a5.226,5.226,0,0,0,1.15,6.6,66.358,66.358,0,0,0-.881,8.583c-.047,1.045-.077,2.112-.088,3.183H17.353V16.308a1.04,1.04,0,0,0-.1-.451c0-.005,0-.011-.007-.016L13.061,7.477a1.046,1.046,0,0,0-1.87,0L7.01,15.84,7,15.856a1.039,1.039,0,0,0-.1.451v15.68H2.091V5.227A3.139,3.139,0,0,1,5.227,2.091Zm33.033,29.9v-23h6.272v2.091H43.487a1.045,1.045,0,1,0,0,2.091h1.045v3.136H43.487a1.045,1.045,0,1,0,0,2.091h1.045v3.136H43.487a1.045,1.045,0,1,0,0,2.091h1.045v4.181H43.487a1.045,1.045,0,1,0,0,2.091h1.045v2.091ZM26.935,21.462a5.234,5.234,0,0,0,1.128-.125c.194,1.243.479,3.444.648,6.47H24.819c.177-3.024.475-5.259.682-6.544a5.233,5.233,0,0,0,1.434.2Zm0-2.091a3.14,3.14,0,0,1-2.719-4.7l2.719-4.707,2.718,4.707a3.138,3.138,0,0,1-2.718,4.7ZM24.723,29.9H28.8c.022.687.037,1.386.045,2.091h-4.17c.008-.7.024-1.4.047-2.091ZM13.171,31.988V17.353h2.091V31.988Zm-4.181,0V17.353h2.091V31.988Zm.646-16.726,2.49-4.98,2.49,4.98ZM35.99,51.431H17.531a3.142,3.142,0,0,1,2.958-2.091H33.033A3.141,3.141,0,0,1,35.99,51.431ZM29.9,47.25H23.625V42.441H29.9Zm18.4-6.9H5.227a3.139,3.139,0,0,1-3.136-3.136V34.079H51.431v3.136A3.139,3.139,0,0,1,48.3,40.351Zm0,0" fill="#ff4900"/>
</svg>
