<svg id="facebook" xmlns="http://www.w3.org/2000/svg" width="20.488" height="37.894" viewBox="0 0 20.488 37.894">
  <path id="Path_58" data-name="Path 58" d="M41.793.008,36.879,0c-5.521,0-9.089,3.66-9.089,9.326v4.3H22.85a.773.773,0,0,0-.773.773v6.23a.773.773,0,0,0,.773.773h4.941v15.72a.772.772,0,0,0,.773.773H35.01a.773.773,0,0,0,.773-.773V21.4h5.777a.772.772,0,0,0,.773-.773l0-6.23a.773.773,0,0,0-.773-.773H35.782V9.981c0-1.752.417-2.641,2.7-2.641h3.31a.773.773,0,0,0,.772-.773V.781A.773.773,0,0,0,41.793.008Z" transform="translate(-22.077)" fill="rgba(255,73,0,0.91)"/>
</svg>
