<svg width="34" height="34" viewBox="0 0 34 34" fill="none" xmlns="http://www.w3.org/2000/svg">
<path d="M29.75 14.875V10.625H27.625V14.875H23.375V17H27.625V21.25H29.75V17H34V14.875H29.75Z" fill="white"/>
<path d="M10.625 14.875V19.125H16.6366C15.759 21.5985 13.396 23.375 10.625 23.375C7.11025 23.375 4.25 20.5148 4.25 17C4.25 13.4852 7.11025 10.625 10.625 10.625C12.1486 10.625 13.6149 11.1711 14.7539 12.1635L17.5461 8.959C15.6336 7.293 13.1771 6.375 10.625 6.375C4.76638 6.375 0 11.1414 0 17C0 22.8586 4.76638 27.625 10.625 27.625C16.4836 27.625 21.25 22.8586 21.25 17V14.875H10.625Z" fill="white"/>
</svg>
