<svg width="34" height="33" viewBox="0 0 34 33" fill="none" xmlns="http://www.w3.org/2000/svg">
<path d="M29.75 14.4375V10.3125H27.625V14.4375H23.375V16.5H27.625V20.625H29.75V16.5H34V14.4375H29.75Z" fill="#ED0000"/>
<path d="M10.625 14.4375V18.5625H16.6366C15.759 20.9633 13.396 22.6875 10.625 22.6875C7.11025 22.6875 4.25 19.9114 4.25 16.5C4.25 13.0886 7.11025 10.3125 10.625 10.3125C12.1486 10.3125 13.6149 10.8426 14.7539 11.8057L17.5461 8.6955C15.6336 7.0785 13.1771 6.1875 10.625 6.1875C4.76638 6.1875 0 10.8137 0 16.5C0 22.1863 4.76638 26.8125 10.625 26.8125C16.4836 26.8125 21.25 22.1863 21.25 16.5V14.4375H10.625Z" fill="#ED0000"/>
</svg>
