<svg width="42" height="36" viewBox="0 0 42 36" fill="none" xmlns="http://www.w3.org/2000/svg">
<g filter="url(#filter0_d)">
<path d="M34.6 0H7.4C6.50121 0.00462617 5.64077 0.375417 5.00682 1.03129C4.37287 1.68717 4.01699 2.57477 4.017 3.5L4 24.5C4.00245 25.4275 4.36145 26.3163 4.99854 26.9721C5.63563 27.6279 6.49902 27.9975 7.4 28H34.6C35.501 27.9975 36.3644 27.6279 37.0015 26.9721C37.6386 26.3163 37.9976 25.4275 38 24.5V3.5C37.9976 2.57252 37.6386 1.68374 37.0015 1.02791C36.3644 0.372077 35.501 0.00251921 34.6 0ZM34.6 7L21 15.75L7.4 7V3.5L21 12.25L34.6 3.5V7Z" fill="white"/>
</g>
<defs>
<filter id="filter0_d" x="0" y="0" width="42" height="36" filterUnits="userSpaceOnUse" color-interpolation-filters="sRGB">
<feFlood flood-opacity="0" result="BackgroundImageFix"/>
<feColorMatrix in="SourceAlpha" type="matrix" values="0 0 0 0 0 0 0 0 0 0 0 0 0 0 0 0 0 0 127 0"/>
<feOffset dy="4"/>
<feGaussianBlur stdDeviation="2"/>
<feColorMatrix type="matrix" values="0 0 0 0 0 0 0 0 0 0 0 0 0 0 0 0 0 0 0.08 0"/>
<feBlend mode="normal" in2="BackgroundImageFix" result="effect1_dropShadow"/>
<feBlend mode="normal" in="SourceGraphic" in2="effect1_dropShadow" result="shape"/>
</filter>
</defs>
</svg>
