<svg xmlns="http://www.w3.org/2000/svg" width="32.143" height="25" viewBox="0 0 32.143 25">
  <path id="Icon_awesome-address-card" data-name="Icon awesome-address-card" d="M29.464,2.25H2.679A2.679,2.679,0,0,0,0,4.929V24.571A2.679,2.679,0,0,0,2.679,27.25H29.464a2.679,2.679,0,0,0,2.679-2.679V4.929A2.679,2.679,0,0,0,29.464,2.25ZM9.821,7.607A3.571,3.571,0,1,1,6.25,11.179,3.575,3.575,0,0,1,9.821,7.607Zm6.25,13.214a1.17,1.17,0,0,1-1.25,1.071h-10a1.17,1.17,0,0,1-1.25-1.071V19.75a3.514,3.514,0,0,1,3.75-3.214H7.6a5.748,5.748,0,0,0,4.442,0h.279a3.514,3.514,0,0,1,3.75,3.214Zm12.5-2.946a.448.448,0,0,1-.446.446H20.089a.448.448,0,0,1-.446-.446v-.893a.448.448,0,0,1,.446-.446h8.036a.448.448,0,0,1,.446.446Zm0-3.571a.448.448,0,0,1-.446.446H20.089a.448.448,0,0,1-.446-.446v-.893a.448.448,0,0,1,.446-.446h8.036a.448.448,0,0,1,.446.446Zm0-3.571a.448.448,0,0,1-.446.446H20.089a.448.448,0,0,1-.446-.446V9.839a.448.448,0,0,1,.446-.446h8.036a.448.448,0,0,1,.446.446Z" transform="translate(0 -2.25)" fill="#ff4900"/>
</svg>
