<svg width="25" height="24" viewBox="0 0 25 24" fill="none" xmlns="http://www.w3.org/2000/svg">
<path d="M18.2327 0H6.76726C3.03573 0 0 2.9143 0 6.49657V17.5036C0 21.0857 3.03573 24 6.76726 24H18.2329C21.9642 24 25 21.0857 25 17.5036V6.49657C25 2.9143 21.9642 0 18.2327 0V0ZM12.5 18.5623C8.73068 18.5623 5.66424 15.6185 5.66424 12C5.66424 8.38145 8.73068 5.43767 12.5 5.43767C16.2693 5.43767 19.3357 8.38145 19.3357 12C19.3357 15.6185 16.2693 18.5623 12.5 18.5623ZM19.4992 6.98528C18.3853 6.98528 17.4793 6.11553 17.4793 5.04619C17.4793 3.97686 18.3853 3.10693 19.4992 3.10693C20.6131 3.10693 21.5192 3.97686 21.5192 5.04619C21.5192 6.11553 20.6131 6.98528 19.4992 6.98528Z" fill="#ED0000"/>
<path d="M12.5 6.84372C9.53905 6.84372 7.12988 9.15634 7.12988 11.999C7.12988 14.8416 9.53905 17.1544 12.5 17.1544C15.4612 17.1544 17.8701 14.8416 17.8701 11.999C17.8701 9.15634 15.4612 6.84372 12.5 6.84372Z" fill="#ED0000"/>
<path d="M19.4996 4.51251C19.194 4.51251 18.9453 4.75128 18.9453 5.04462C18.9453 5.33795 19.194 5.57672 19.4996 5.57672C19.8053 5.57672 20.054 5.33813 20.054 5.04462C20.054 4.7511 19.8053 4.51251 19.4996 4.51251Z" fill="#ED0000"/>
</svg>
