<svg width="24" height="24" viewBox="0 0 24 24" fill="none" xmlns="http://www.w3.org/2000/svg">
<path d="M17.5034 0H6.49657C2.9143 0 0 2.9143 0 6.49657V17.5036C0 21.0857 2.9143 24 6.49657 24H17.5036C21.0857 24 24 21.0857 24 17.5036V6.49657C24 2.9143 21.0857 0 17.5034 0V0ZM12 18.5623C8.38145 18.5623 5.43767 15.6185 5.43767 12C5.43767 8.38145 8.38145 5.43767 12 5.43767C15.6185 5.43767 18.5623 8.38145 18.5623 12C18.5623 15.6185 15.6185 18.5623 12 18.5623ZM18.7192 6.98528C17.6499 6.98528 16.7801 6.11553 16.7801 5.04619C16.7801 3.97686 17.6499 3.10693 18.7192 3.10693C19.7885 3.10693 20.6585 3.97686 20.6585 5.04619C20.6585 6.11553 19.7885 6.98528 18.7192 6.98528Z" fill="white"/>
<path d="M12.0001 6.84375C9.15753 6.84375 6.84473 9.15637 6.84473 11.9991C6.84473 14.8416 9.15753 17.1544 12.0001 17.1544C14.8428 17.1544 17.1554 14.8416 17.1554 11.9991C17.1554 9.15637 14.8428 6.84375 12.0001 6.84375Z" fill="white"/>
<path d="M18.7196 4.51318C18.4263 4.51318 18.1875 4.75195 18.1875 5.04529C18.1875 5.33862 18.4263 5.57739 18.7196 5.57739C19.0131 5.57739 19.2519 5.3388 19.2519 5.04529C19.2519 4.75177 19.0131 4.51318 18.7196 4.51318Z" fill="white"/>
</svg>
