<svg width="25" height="25" viewBox="0 0 25 25" fill="none" xmlns="http://www.w3.org/2000/svg">
<path d="M5.39917 7.55908H0V24.158H5.39917V7.55908Z" fill="#ED0000"/>
<path d="M20.1136 7.75451C20.0562 7.7364 20.0019 7.71678 19.9415 7.70018C19.8691 7.68358 19.7967 7.67 19.7227 7.65793C19.436 7.60059 19.1222 7.55984 18.754 7.55984C15.6062 7.55984 13.6098 9.84898 12.9519 10.7333V7.55984H7.55273V24.1587H12.9519V15.1048C12.9519 15.1048 17.0322 9.42194 18.754 13.5958C18.754 17.3215 18.754 24.1587 18.754 24.1587H24.1516V12.9575C24.1516 10.4496 22.4329 8.35961 20.1136 7.75451Z" fill="#ED0000"/>
<path d="M2.64073 5.28147C4.09917 5.28147 5.28147 4.09917 5.28147 2.64073C5.28147 1.1823 4.09917 0 2.64073 0C1.1823 0 0 1.1823 0 2.64073C0 4.09917 1.1823 5.28147 2.64073 5.28147Z" fill="#ED0000"/>
</svg>
