<svg width="19" height="25" viewBox="0 0 19 25" fill="none" xmlns="http://www.w3.org/2000/svg">
<path d="M9.50132 0C4.50889 0 0.447266 4.06162 0.447266 9.054C0.447266 15.2497 8.54975 24.3454 8.89472 24.7295C9.21875 25.0904 9.78447 25.0898 10.1079 24.7295C10.4529 24.3454 18.5554 15.2497 18.5554 9.054C18.5553 4.06162 14.4937 0 9.50132 0ZM9.50132 13.6093C6.9895 13.6093 4.94604 11.5658 4.94604 9.054C4.94604 6.54219 6.98955 4.49873 9.50132 4.49873C12.0131 4.49873 14.0565 6.54224 14.0565 9.05405C14.0565 11.5659 12.0131 13.6093 9.50132 13.6093Z" fill="#ED0000"/>
</svg>
