<svg width="100" height="103" viewBox="0 0 100 103" fill="none" xmlns="http://www.w3.org/2000/svg">
<path d="M50.0076 26.7208L37.0212 19.1934L21.4404 42.2555L50.0076 58.8249V26.7208Z" fill="#EDEDED"/>
<path d="M50.0076 58.8247L21.4404 42.2554L13.1953 54.4462L50.0076 75.814V58.8247Z" fill="#A5B4FF"/>
<path d="M50.0074 0L37.021 19.1935L50.0074 26.7209V0Z" fill="#2542CB"/>
<path d="M13.1952 54.4463L0 73.9697L50.0075 103V75.814L13.1952 54.4463Z" fill="#3498EB"/>
<path d="M50.0073 58.8249L78.5596 42.2555L62.9788 19.1934L50.0073 26.7208V58.8249Z" fill="#DADADA"/>
<path d="M62.9788 19.1935L50.0073 0V26.7209L62.9788 19.1935Z" fill="#3852CE"/>
<path d="M50.0073 103L100.015 73.9697L86.8196 54.4463L50.0073 75.814V103Z" fill="#4FAFFD"/>
<path d="M50.0073 58.8247V75.814L86.8196 54.4462L78.5596 42.2554L50.0073 58.8247Z" fill="#7D92F5"/>
</svg>
