<svg xmlns="http://www.w3.org/2000/svg" width="31.507" height="31.495" viewBox="0 0 31.507 31.495">
  <path id="Path_166" data-name="Path 166" d="M32.006,9.091l-4.627-.4L26.951,3.98a1.9,1.9,0,0,0-2.074-1.723L3.987,4.141a1.907,1.907,0,0,0-1.73,2.067L4.141,27.056a1.9,1.9,0,0,0,2.074,1.723l1.1-.1-.105,1.174a1.9,1.9,0,0,0,1.737,2.06l20.9,1.821a1.907,1.907,0,0,0,2.067-1.73L33.75,11.152A1.916,1.916,0,0,0,32.006,9.091ZM6.159,21.143a.484.484,0,0,1-.52-.429L4.373,6.652A.473.473,0,0,1,4.8,6.138L24.434,4.373a.484.484,0,0,1,.52.429l.337,3.713L11.109,7.27A1.907,1.907,0,0,0,9.042,9L7.995,20.974Zm25.467-9.534L30.4,25.671a.479.479,0,0,1-.513.436l-1.308-.112-18.33-1.6a.479.479,0,0,1-.436-.513l.267-3.087.963-10.976a.479.479,0,0,1,.513-.436L25.474,10.6l2.088.183,3.628.316A.459.459,0,0,1,31.627,11.609Z" transform="translate(-2.25 -2.249)" fill="#fff"/>
</svg>
