<svg width="33" height="33" viewBox="0 0 33 33" fill="none" xmlns="http://www.w3.org/2000/svg">
<g clip-path="url(#clip0)">
<path d="M32.6749 0.0842227C32.4739 -0.0305039 32.2266 -0.0285703 32.0275 0.08925L20.2162 7.07365C19.9097 7.25483 19.8082 7.65005 19.9894 7.95646C20.1705 8.26281 20.5657 8.36432 20.8722 8.18321L29.3467 3.17204L13.5617 19.5504L5.71078 17.1485L15.9566 11.0899C16.263 10.9087 16.3645 10.5134 16.1833 10.207C16.0022 9.90069 15.6069 9.79905 15.3005 9.98029L3.79697 16.7826C3.57718 16.9126 3.45479 17.16 3.48501 17.4137C3.51524 17.6673 3.6923 17.8791 3.93644 17.9538L13.3124 20.8222L17.4488 28.3512C17.4531 28.359 17.4576 28.3655 17.4621 28.3714C17.5312 28.4865 17.6346 28.5806 17.7636 28.6348C17.8444 28.6688 17.9293 28.6854 18.0136 28.6854C18.1788 28.6854 18.3414 28.6218 18.4642 28.5017L23.2204 23.8534L32.1669 26.5904C32.2288 26.6093 32.2923 26.6187 32.3555 26.6187C32.4918 26.6187 32.6265 26.5754 32.7388 26.4923C32.9031 26.3707 33.0001 26.1785 33.0001 25.9741V0.644063C33.0001 0.412611 32.8759 0.198885 32.6749 0.0842227ZM17.4839 21.2194C17.4093 21.3273 17.3693 21.4553 17.3693 21.5864V25.5291L14.5447 20.388L27.0436 7.41938L17.4839 21.2194ZM18.6583 26.5097V22.4577L21.8159 23.4237L18.6583 26.5097ZM31.711 25.1029L19.046 21.2283L31.711 2.9453V25.1029Z" fill="white"/>
<path d="M7.18718 20.9094C6.93542 20.6578 6.52744 20.6578 6.27568 20.9094L4.79326 22.3918C4.54157 22.6435 4.54157 23.0516 4.79326 23.3034C4.91914 23.4292 5.08407 23.4921 5.24901 23.4921C5.41394 23.4921 5.57888 23.4291 5.70476 23.3033L7.18718 21.8209C7.43887 21.5692 7.43887 21.1611 7.18718 20.9094Z" fill="white"/>
<path d="M9.1939 31.8617C9.07408 31.7418 8.90779 31.6729 8.73828 31.6729C8.56806 31.6729 8.40248 31.7418 8.2826 31.8617C8.16271 31.9816 8.09375 32.1472 8.09375 32.3174C8.09375 32.4869 8.16265 32.6532 8.2826 32.7731C8.40248 32.8929 8.56877 32.9619 8.73828 32.9619C8.90779 32.9619 9.07408 32.8929 9.1939 32.7731C9.31378 32.6532 9.38281 32.4869 9.38281 32.3174C9.38281 32.1472 9.31385 31.9816 9.1939 31.8617Z" fill="white"/>
<path d="M13.9894 27.0662C13.7378 26.8145 13.3298 26.8145 13.0779 27.0662L9.89092 30.2531C9.63923 30.5048 9.63923 30.9129 9.89092 31.1646C10.0168 31.2905 10.1817 31.3534 10.3467 31.3534C10.5116 31.3534 10.6765 31.2904 10.8024 31.1646L13.9894 27.9777C14.2411 27.726 14.2411 27.3179 13.9894 27.0662Z" fill="white"/>
<path d="M24.9892 26.8215C24.7374 26.5699 24.3295 26.5699 24.0777 26.8215L20.8821 30.0171C20.6304 30.2688 20.6304 30.6769 20.8821 30.9287C21.008 31.0545 21.1729 31.1175 21.3379 31.1175C21.5028 31.1175 21.6677 31.0545 21.7936 30.9287L24.9892 27.7331C25.2409 27.4814 25.2409 27.0733 24.9892 26.8215Z" fill="white"/>
<path d="M18.2721 8.78553C18.1522 8.66564 17.9859 8.59668 17.8164 8.59668C17.6469 8.59668 17.4806 8.66564 17.3607 8.78553C17.2409 8.90541 17.1719 9.0717 17.1719 9.24186C17.1719 9.41137 17.2408 9.57701 17.3607 9.69689C17.4806 9.81742 17.6469 9.88574 17.8164 9.88574C17.9859 9.88574 18.1522 9.81742 18.2721 9.69689C18.3919 9.57701 18.4609 9.41137 18.4609 9.24186C18.4609 9.0717 18.392 8.90541 18.2721 8.78553Z" fill="white"/>
</g>
<defs>
<clipPath id="clip0">
<rect width="33" height="33" fill="white"/>
</clipPath>
</defs>
</svg>
