<svg id="twitter" xmlns="http://www.w3.org/2000/svg" width="40.146" height="32.619" viewBox="0 0 40.146 32.619">
  <g id="Group_67" data-name="Group 67" transform="translate(0 0)">
    <path id="Path_59" data-name="Path 59" d="M40.146,82.33a17.159,17.159,0,0,1-4.742,1.3,8.184,8.184,0,0,0,3.621-4.549,16.448,16.448,0,0,1-5.219,1.992A8.23,8.23,0,0,0,19.569,86.7a8.475,8.475,0,0,0,.191,1.877A23.3,23.3,0,0,1,2.8,79.969a8.232,8.232,0,0,0,2.529,11,8.128,8.128,0,0,1-3.719-1.014v.09A8.268,8.268,0,0,0,8.2,98.133a8.215,8.215,0,0,1-2.158.271,7.277,7.277,0,0,1-1.558-.141A8.309,8.309,0,0,0,12.174,104a16.537,16.537,0,0,1-10.2,3.51A15.417,15.417,0,0,1,0,107.394a23.171,23.171,0,0,0,12.626,3.693c15.145,0,23.425-12.546,23.425-23.42,0-.364-.013-.715-.03-1.064A16.419,16.419,0,0,0,40.146,82.33Z" transform="translate(0 -78.469)" fill="rgba(255,73,0,0.91)"/>
  </g>
</svg>
