<svg xmlns="http://www.w3.org/2000/svg" width="31.5" height="18" viewBox="0 0 31.5 18">
  <g id="Icon_ionic-ios-videocam" data-name="Icon ionic-ios-videocam" transform="translate(-2.25 -9)">
    <path id="Path_161" data-name="Path 161" d="M31.683,10.8a1.2,1.2,0,0,0-.654.19l-6.082,3.839a.6.6,0,0,0-.281.506v5.344a.6.6,0,0,0,.281.506l6.082,3.839a1.264,1.264,0,0,0,.654.19h1.463a.6.6,0,0,0,.6-.6V11.4a.6.6,0,0,0-.6-.6Z" fill="#ff4900"/>
    <path id="Path_162" data-name="Path 162" d="M19.23,27H5.871A3.633,3.633,0,0,1,2.25,23.386V12.614A3.627,3.627,0,0,1,5.864,9H19.223a3.627,3.627,0,0,1,3.614,3.614V23.379A3.617,3.617,0,0,1,19.23,27Z" fill="#ff4900"/>
  </g>
</svg>
