<svg width="26" height="24" viewBox="0 0 26 24" fill="none" xmlns="http://www.w3.org/2000/svg">
<path d="M24.1895 4.69365H19.3415V1.99808C19.3415 0.93306 18.4729 0.0664062 17.4053 0.0664062H8.49316C7.42557 0.0664062 6.55693 0.93306 6.55693 1.99808V4.69365H1.81047C0.812103 4.69365 0 5.50595 0 6.50412V22.1231C0 23.1215 0.812103 23.9336 1.81047 23.9336H24.1895C25.1879 23.9336 26 23.1215 26 22.1231V6.50412C26 5.50595 25.1879 4.69365 24.1895 4.69365ZM8.08037 1.99808C8.08037 1.77293 8.26544 1.58984 8.49316 1.58984H17.4053C17.6328 1.58984 17.8181 1.77293 17.8181 1.99808V4.69365H8.08037V1.99808ZM1.81047 6.21709H24.1895C24.3478 6.21709 24.4766 6.34583 24.4766 6.50412V11.736H21.6477V10.9705C21.6477 10.1633 20.9911 9.50676 20.1842 9.50676H17.8815C17.0744 9.50676 16.418 10.1633 16.418 10.9705V11.736H9.48042V10.9705C9.48042 10.1633 8.82384 9.50676 8.01689 9.50676H5.71428C4.90733 9.50676 4.25075 10.1633 4.25075 10.9705V11.736H1.52344V6.50412C1.52344 6.34583 1.65218 6.21709 1.81047 6.21709ZM17.9415 11.0302H20.1243V14.9763H17.9415V11.0302ZM5.77419 11.0302H7.95699V14.9763H5.77419V11.0302ZM24.1895 22.4102H1.81047C1.65218 22.4102 1.52344 22.2814 1.52344 22.1231V13.2594H4.25075V15.0362C4.25075 15.8431 4.90733 16.4997 5.71428 16.4997H8.01689C8.82404 16.4997 9.48042 15.8431 9.48042 15.0362V13.2594H16.4178V15.0362C16.4178 15.8431 17.0744 16.4997 17.8815 16.4997H20.1842C20.9911 16.4997 21.6477 15.8431 21.6477 15.0362V13.2594H24.4766V22.1231C24.4766 22.2814 24.3478 22.4102 24.1895 22.4102Z" fill="black"/>
</svg>
